<svg width="27" height="27" viewBox="0 0 27 27" fill="none" xmlns="http://www.w3.org/2000/svg">
<path fill-rule="evenodd" clip-rule="evenodd" d="M13.4779 0C6.03407 0 0 6.0435 0 13.5008C0 19.4648 3.86142 24.5258 9.21755 26.3103C9.89145 26.4342 10.1367 26.0178 10.1367 25.6593C10.1367 25.3398 10.126 24.4894 10.1192 23.364C6.36967 24.1794 5.57851 21.5539 5.57851 21.5539C4.96661 19.9931 4.08246 19.578 4.08246 19.578C2.85867 18.7424 4.17546 18.7586 4.17546 18.7586C5.5273 18.8529 6.23893 20.1495 6.23893 20.1495C7.44116 22.2116 9.39411 21.6159 10.161 21.2709C10.285 20.3988 10.6327 19.8045 11.0182 19.4675C8.0261 19.1265 4.87901 17.9674 4.87901 12.7946C4.87901 11.3215 5.40465 10.1152 6.26589 9.17173C6.12706 8.83073 5.66477 7.45733 6.39797 5.60008C6.39797 5.60008 7.53011 5.23617 10.1044 6.98291C11.2039 6.68305 12.3383 6.53031 13.4779 6.5287C14.6235 6.5341 15.7759 6.6837 16.8528 6.98291C19.4257 5.23617 20.5552 5.59873 20.5552 5.59873C21.2911 7.45733 20.8274 8.83073 20.69 9.17173C21.5525 10.1152 22.0755 11.3215 22.0755 12.7946C22.0755 17.9809 18.923 19.1225 15.9215 19.4567C16.4053 19.8732 16.8353 20.6967 16.8353 21.9569C16.8353 23.7602 16.8191 25.2172 16.8191 25.6593C16.8191 26.0205 17.0617 26.441 17.7464 26.3089C20.4302 25.4087 22.7633 23.6879 24.4159 21.3895C26.0685 19.0912 26.957 16.3316 26.9558 13.5008C26.9558 6.0435 20.9204 0 13.4779 0Z" fill="black"/>
</svg>
