<svg width="14" height="14" viewBox="0 0 14 14" fill="none" xmlns="http://www.w3.org/2000/svg">
<path fill-rule="evenodd" clip-rule="evenodd" d="M0.0289115 5.24879C0.00263232 2.84693 -0.0080517 1.87043 0.885324 0.942475C1.82291 -0.0296807 2.8468 -0.0211311 6.43224 0.00880791C7.17467 0.0150073 8.02693 0.0221239 9.01101 0.0216402C10.5984 0.0244076 10.6885 0.0374966 10.9894 0.0811695L11.0066 0.0836683C12.382 0.281594 13.4257 1.25882 13.5588 2.95444C13.5768 3.18113 13.5768 10.3939 13.5594 10.616C13.4342 12.2079 12.5184 13.1208 11.3929 13.4112C10.5499 13.6295 3.0704 13.6295 2.22626 13.4124C-0.0978028 12.8117 -0.0420702 10.534 0.0193051 8.0256C0.0293203 7.61628 0.0394857 7.20083 0.0394857 6.78552C0.0394857 6.21525 0.0339158 5.70618 0.0289115 5.24879ZM6.31105 1.7884C6.47464 1.78958 6.63948 1.79077 6.805 1.79077H6.80274C6.99962 1.79077 7.19 1.78949 7.37419 1.78824C8.97048 1.77747 10.1014 1.76983 10.9609 2.62928C11.817 3.48488 11.8109 4.5973 11.8019 6.24586C11.8009 6.42045 11.8 6.60104 11.8 6.78798C11.8 6.96088 11.8006 7.12736 11.8012 7.28785C11.8057 8.49248 11.8089 9.3592 11.5377 10.0608C10.8519 11.8204 9.10885 11.8046 7.31947 11.7883C7.14773 11.7868 6.97557 11.7852 6.80387 11.7852C6.63941 11.7852 6.47542 11.7864 6.3125 11.7876C4.46234 11.8011 2.75156 11.8136 2.07057 10.0608C1.79988 9.36398 1.80348 8.32777 1.8074 7.20012C1.80788 7.06393 1.80836 6.92641 1.80836 6.78798C1.80836 6.61758 1.80775 6.45316 1.80717 6.29439C1.80274 5.08929 1.79952 4.21015 2.07057 3.51459C2.75318 1.76271 4.45101 1.77497 6.31105 1.7884ZM7.16073 2.68597C6.90883 2.68834 6.64129 2.69086 6.35727 2.69131V2.69018C3.0258 2.69356 2.71002 2.75672 2.71002 6.78573C2.71002 10.7685 2.82449 10.8824 6.80556 10.8824C7.00646 10.8824 7.2039 10.8846 7.39692 10.8867C9.30168 10.9076 10.775 10.9238 10.8718 8.80559C11.1518 2.64837 10.6968 2.65266 7.16073 2.68597ZM8.87279 4.12021C8.87279 3.7892 9.1412 3.52079 9.47221 3.52079C9.80321 3.52079 10.0716 3.7892 10.0716 4.12021C10.0716 4.45121 9.80321 4.71963 9.47221 4.71963C9.1412 4.71963 8.87279 4.45121 8.87279 4.12021ZM4.23929 6.78798C4.23929 5.37092 5.38794 4.22171 6.805 4.22171C8.22206 4.22171 9.37014 5.37092 9.37014 6.78798C9.37014 8.20504 8.22206 9.35369 6.805 9.35369C5.38794 9.35369 4.23929 8.20504 4.23929 6.78798ZM6.805 5.12225C9.007 5.12225 9.00982 8.45372 6.805 8.45372C4.60357 8.45372 4.60018 5.12225 6.805 5.12225Z" fill="black"/>
</svg>
