<svg width="12" height="13" viewBox="0 0 12 13" fill="none" xmlns="http://www.w3.org/2000/svg">
<path fill-rule="evenodd" clip-rule="evenodd" d="M1.56127 6.03782H3.01963C3.0865 4.87873 3.3072 3.81098 3.64761 2.95141C2.56158 3.61781 1.78026 4.73248 1.56127 6.03782ZM5.99635 0.791016C2.68466 0.791016 0 3.47567 0 6.78737C0 10.0991 2.68466 12.7837 5.99635 12.7837C9.30804 12.7837 11.9927 10.0991 11.9927 6.78737C11.9927 3.47567 9.30804 0.791016 5.99635 0.791016ZM5.99635 2.2901C5.93935 2.2901 5.82236 2.31388 5.64759 2.48637C5.4696 2.66203 5.27492 2.95338 5.09527 3.37257C4.80393 4.05236 4.59089 4.97766 4.52152 6.03782H7.47118C7.40182 4.97766 7.18877 4.05236 6.89743 3.37257C6.71778 2.95338 6.5231 2.66203 6.34511 2.48637C6.17034 2.31388 6.05335 2.2901 5.99635 2.2901ZM8.97307 6.03782C8.90621 4.87873 8.68551 3.81098 8.34509 2.95141C9.43112 3.61781 10.2124 4.73248 10.4314 6.03782H8.97307ZM7.47118 7.53691H4.52152C4.59089 8.59708 4.80393 9.52237 5.09527 10.2022C5.27492 10.6214 5.4696 10.9127 5.64759 11.0884C5.82236 11.2609 5.93935 11.2846 5.99635 11.2846C6.05335 11.2846 6.17034 11.2609 6.34511 11.0884C6.5231 10.9127 6.71778 10.6214 6.89743 10.2022C7.18877 9.52237 7.40182 8.59708 7.47118 7.53691ZM8.34509 10.6233C8.68551 9.76375 8.90621 8.696 8.97307 7.53691H10.4314C10.2124 8.84226 9.43112 9.95693 8.34509 10.6233ZM3.64761 10.6233C3.3072 9.76375 3.0865 8.696 3.01963 7.53691H1.56127C1.78026 8.84226 2.56158 9.95693 3.64761 10.6233Z" fill="black"/>
</svg>
