<svg width="512" height="512" viewBox="0 0 512 512" fill="none" xmlns="http://www.w3.org/2000/svg">
<path d="M414.961 12H95.04C48.073 12 10 50.073 10 97.04V416.961C10 463.927 48.073 502 95.04 502H414.961C461.927 502 500 463.927 500 416.961V97.04C500 50.073 461.927 12 414.961 12ZM388.641 336.882C385.162 340.507 380.94 344.391 375.416 348.81C361.601 359.862 283.416 417.81 264.416 429.81C245.416 441.81 238.416 438.81 236.416 433.81C234.416 428.81 240.416 416.81 243.416 403.81C246.416 390.81 244.303 385.792 231.416 383.81C230.467 383.664 229.529 383.465 228.605 383.231C139.168 372.51 70.416 308.136 70.416 230.31C70.416 144.982 153.057 75.81 255 75.81C356.943 75.81 439.584 144.982 439.584 230.31C439.584 271.629 420.205 309.16 388.641 336.882Z" fill="#22C92F"/>
<path d="M176 287.472H148.507V220.984C148.507 217.204 147.645 214.388 145.921 212.54C144.196 210.692 141.942 209.768 139.16 209.768C136.418 209.768 134.206 210.703 132.523 212.572C130.84 214.442 130 217.246 130 220.985V291.337C130 295.325 130.882 298.214 132.648 299.999C134.413 301.786 137.31 302.679 141.34 302.679H176C179.032 302.679 181.338 301.984 182.917 300.591C184.495 299.2 185.285 297.382 185.285 295.138C185.285 292.937 184.484 291.109 182.886 289.656C181.286 288.198 178.991 287.472 176 287.472Z" fill="#22C92F"/>
<path d="M205.16 209.767C202.459 209.767 200.258 210.702 198.555 212.571C196.852 214.441 196 217.245 196 220.984V292.957C196 296.695 196.862 299.51 198.586 301.4C200.31 303.289 202.501 304.234 205.16 304.234C207.943 304.234 210.197 303.3 211.922 301.431C213.645 299.562 214.508 296.736 214.508 292.956V220.983C214.508 217.203 213.645 214.387 211.922 212.539C210.197 210.691 207.943 209.767 205.16 209.767Z" fill="#22C92F"/>
<path d="M298.827 209.767C296.251 209.767 294.205 210.65 292.689 212.415C291.172 214.181 290.415 216.829 290.415 220.359V274.698L255 220.858C254.003 219.28 253.037 217.763 252.103 216.309C251.167 214.855 250.253 213.67 249.361 212.756C248.467 211.844 247.429 211.115 246.246 210.575C245.061 210.036 243.639 209.765 241.977 209.765C239.858 209.765 237.884 210.357 236.057 211.54C234.228 212.724 232.919 214.251 232.131 216.12C231.466 217.824 231.134 220.171 231.134 223.161V293.64C231.134 297.087 231.922 299.714 233.502 301.523C235.08 303.33 237.178 304.232 239.795 304.232C242.329 304.232 244.406 303.339 246.026 301.552C247.646 299.767 248.457 297.128 248.457 293.64V240.112L283 293.329C283.997 294.784 284.994 296.206 285.99 297.599C286.987 298.99 288.067 300.206 289.231 301.244C290.393 302.283 291.639 303.041 292.969 303.517C294.298 303.996 295.793 304.234 297.455 304.234C304.101 304.234 307.426 300.226 307.426 292.209V220.36C307.426 216.83 306.656 214.181 305.12 212.416C303.584 210.649 301.485 209.767 298.827 209.767Z" fill="#22C92F"/>
<path d="M371.214 286.879H338.507V260.895H366.479C369.345 260.895 371.463 260.241 372.834 258.932C374.205 257.623 374.891 255.932 374.891 253.854C374.891 251.776 374.195 250.104 372.803 248.836C371.41 247.57 369.303 246.936 366.479 246.936H338.507V224.503H369.78C372.729 224.503 374.922 223.849 376.354 222.54C377.788 221.231 378.504 219.497 378.504 217.337C378.504 215.218 377.787 213.505 376.354 212.196C374.921 210.887 372.729 210.233 369.78 210.233H331.341C328.724 210.233 326.573 210.618 324.892 211.385C323.209 212.155 321.972 213.379 321.184 215.062C320.394 216.745 320 218.916 320 221.574V290.244C320 294.232 320.882 297.121 322.647 298.906C324.413 300.693 327.31 301.586 331.34 301.586H371.213C374.12 301.586 376.312 300.91 377.787 299.561C379.261 298.211 379.999 296.456 379.999 294.295C379.999 292.051 379.261 290.256 377.787 288.904C376.313 287.555 374.121 286.879 371.214 286.879Z" fill="#22C92F"/>
</svg>
